/* XPM */
static char * Sprite_xpm[] = {
"64 64 27 1",
" 	c #B6E2A0",
".	c #AED499",
"+	c #CAEDB8",
"@	c #A2CE8C",
"#	c #529B6F",
"$	c #8FC37A",
"%	c #A0E198",
"&	c #36714E",
"*	c #DD7599",
"=	c #F5BACF",
"-	c #75B870",
";	c #FBEDFD",
">	c #E9EB34",
",	c #000000",
"'	c #6BA76B",
")	c #101010",
"!	c #265539",
"~	c #292929",
"{	c #F6BD20",
"]	c #623108",
"^	c #9C5200",
"/	c #F6E652",
"(	c #DE9400",
"_	c #FFF6A4",
":	c #FFFFFF",
"<	c #E65A41",
"[	c #C52018",
"        ..              ..              ..     ..         ++   .",
"                                                  @@            ",
"              ++              ++#.                @@ ..         ",
"              ++              $#%#$          +    $   ..$  $    ",
"         ..              .###$#%%#$&##   ..      $*$ $ $===$$   ",
"     ++   ..         ++  #%%-#&-%#&-%%#   ..      $   $=;;;=$$  ",
"             @@           #%%-&--&-%%#           $    $=;>;=$+  ",
"..           @@ ..   ,    $&---&-&--&$      ..   $$  $'=;;;=    ",
".@.     +       .@. ,), +###&#-#&--&&## +   .@  $***$ $'===   . ",
" ..              .. ,), #%%%-&#-&-&-%%%#     .$$*===*$$$''$@@ . ",
"     ..     ++      ,)),.#%%%-!#!&----#       .$*=>=*''$'$ @$   ",
"            ++     ,))), $&----!&###!&$      ..@*===*'$ $  $=$. ",
" .     ..        . ,))),. $&&!!&!!!!&$ ..  ,,, $'***'$ $  $ $   ",
"       .@.         ,))),@$#%--!#!#--%#$.,,,~~~,)$$''$$=*=$++    ",
"        ..         ,)){,]#%--!#-#!##-%,,~~~~~~~)  $''$*>*$++    ",
"              ..   ,{){{]$#&&!---#!!^^{{~~~~~~).   $'$=*='$ $ ..",
"        ..       @@,{{{{] $^^^^^#&^^///~~~~~~)      $.$''$     .",
"                 @@ ]{{{^^(___//(^///////~~))         .$$       ",
"            +    $  ]{{((______/////////~))        ^^           ",
"                $*$ $](/______/////////))    +    ^//^@.     +  ",
"         ..      $   ^////////{)){//(^)  ..      ^////^  ..     ",
"     ++   .     $   ](){//////~:),///)+   ..    (/////^   ..    ",
"           ..   $$  ]):{//////))~,///)       @@(///////^     @@ ",
"..         .@  $***$]~)//](///{)){///^       ((////////^     @@ ",
".@.     +   .$$*===*^,^///////////<</(] +   ^//////////^+       ",
" ..          .$*=>=]/////]^(/////<<<[{)    ^////////////^       ",
"     ..     ..@*===]<{/(]^[[^^(/{[[[[{)   ^/////////////^   ++  ",
"              $'***][{{{{^[[[^{{{[[[[{)   ^{////////////^   ++  ",
" .     ..    $'$$''][{{{{{^<<^{{{{[[{{)..^{{{{/////////).       ",
"       .@.   $$  $''^{{{{{^<<^{{{{{{{{).^{{{{{{{/////)).@.      ",
"        ..    .   $'$){{{{{^^{{{{{{{{{] ^{{{{{{{{{/))   .#.     ",
"                   $.){{{{{{{{{{{{{{{{/) ]{{{{{{{))    $#%#$    ",
"        ..           )/{{{{{{{{{{{{{{//)..]{{{{))  ###$#%%#$&## ",
"                     )///{{{{{{{{{{{///)   ]{{^   #%%-#&-%#&-%%#",
"            +       .)/////{{{{{({/////)    ]{{]   #%%-&--&-%%#+",
"              ++     (//^//////(///////]   )({{]   $&---&-&--&$+",
"         ..         )///(//////(////////).)({{{{] ###&#-#&--&&##",
"     ++   ..        )////^////^/////{///)]((({(])#%%%-&#-&-&-%%%",
"             @@     )(///^////^////{(//{)((((]]  .#%%%-!#!&----#",
"..           @@ ..  )^///(///^/////^///{))(()@@ ..$&----!&###!&$",
".@.     +       .@. )^////^//)(///^///{{{))^^)  .@.$&&!!&!!!!&$ ",
" ..              ..)//^/(^////)/(^////{{{) )^^)  .$#%--!#!#--%#$",
"     ..     +#.    ^///^^//////^^////{{{{))^^^)   #%--!#-#!##-%#",
"           $#%#$  ){///////////////{/{{{{]]^))    $#&&!---#!!&#$",
" .     ###$#%%#$&#){{/////////////{/{/{{{{))     . $$##&-#&##$$ ",
"      #%%-#&-%#&-%){{{{{///////{{{/{/{{{{{)          $$$&&$$$   ",
"       #%%-&--&-%%#^{{{{{{{{{{{{{{{{{{{{{]              ..      ",
"       $&---&-&--&$){{{{{{{{{{{{{{{{{{{{()                      ",
"      ###&#-#&--&&##)){{{(())))]{{{{{{{().              ..      ",
"     #%%%-&#-&-&-%%]](^^^^)     )]^^((^)                        ",
"     .#%%%-!#!&---]/^/(]))    ++   ]{{{^)     ++              ++",
"      $&----!&###!&)))]       ++   ))/^/)     ++              ++",
"       $&&!!&!!!!&$      ..          ))) ..              ..     ",
"     +$#%--!#!#--%#$ ++   ..         ++   ..         ++   ..    ",
"      #%--!#-#!##-%#         @@              @@              @@ ",
"..    $#&&!---#!!&#$         @@ ..           @@ ..           @@ ",
".@.    $$##&-#&##$$     +       .@.     +       .@.     +       ",
" ..      $$$&&$$$..              ..              ..             ",
"     ..     ++       ..     ++       ..     ++       ..     ++  ",
"            ++              ++              ++              ++  ",
" .     ..        .     ..        .     ..        .     ..       ",
"       .@.             .@.             .@.             .@.      ",
"        ..              ..              ..              ..      ",
"                                                                "};
