/* XPM */
static char * Finish_open_xpm[] = {
"64 64 438 2",
"  	c #B6E2A0",
". 	c #AED499",
"+ 	c #CAEDB8",
"@ 	c #A2CE8C",
"# 	c #724738",
"$ 	c #734A3A",
"% 	c #917A74",
"& 	c #DE846C",
"* 	c #8FC37A",
"= 	c #DF826B",
"- 	c #D26657",
"; 	c #D16556",
"> 	c #DE836C",
", 	c #DD7599",
"' 	c #F5BACF",
") 	c #795548",
"! 	c #DD816A",
"~ 	c #D06556",
"{ 	c #D06455",
"] 	c #FBEDFD",
"^ 	c #775144",
"/ 	c #BB6259",
"( 	c #CF6556",
"_ 	c #D06456",
": 	c #E9EB34",
"< 	c #C26359",
"[ 	c #BC625A",
"} 	c #6BA76B",
"| 	c #A89994",
"1 	c #CD6558",
"2 	c #B4A8A4",
"3 	c #7F5E53",
"4 	c #CF7B65",
"5 	c #D66F5D",
"6 	c #D26757",
"7 	c #E0846D",
"8 	c #D77360",
"9 	c #C0635A",
"0 	c #9C595E",
"a 	c #B7605B",
"b 	c #B96259",
"c 	c #856960",
"d 	c #BD7B76",
"e 	c #DE846D",
"f 	c #D46E5D",
"g 	c #D16758",
"h 	c #D6725F",
"i 	c #BE6259",
"j 	c #C16359",
"k 	c #CE685A",
"l 	c #A19F9D",
"m 	c #7E5D52",
"n 	c #F6EBEA",
"o 	c #BE635A",
"p 	c #D7725F",
"q 	c #9E5A5E",
"r 	c #B7615B",
"s 	c #B8625A",
"t 	c #D16959",
"u 	c #806157",
"v 	c #E9573F",
"w 	c #BF8D89",
"x 	c #CD6456",
"y 	c #B8615A",
"z 	c #B9625A",
"A 	c #D26959",
"B 	c #896E66",
"C 	c #BA5C54",
"D 	c #CD6557",
"E 	c #9E5C5B",
"F 	c #BA5D54",
"G 	c #CD6457",
"H 	c #BA625A",
"I 	c #B95C54",
"J 	c #BC635B",
"K 	c #F4EAE9",
"L 	c #9E544D",
"M 	c #BA5C5C",
"N 	c #BB635B",
"O 	c #F4EBEA",
"P 	c #7B4240",
"Q 	c #B95C5C",
"R 	c #7D4241",
"S 	c #F4E9E8",
"T 	c #B5E19F",
"U 	c #4B3B34",
"V 	c #B2515B",
"W 	c #B85B5B",
"X 	c #B5525C",
"Y 	c #CD6556",
"Z 	c #9E5959",
"` 	c #D97F69",
" .	c #DB826B",
"..	c #CE6556",
"+.	c #BE6852",
"@.	c #BE6753",
"#.	c #9F5A59",
"$.	c #B65F56",
"%.	c #BE6655",
"&.	c #BD6356",
"*.	c #BC6157",
"=.	c #BE6754",
"-.	c #B95C5A",
";.	c #B7585B",
">.	c #B0535B",
",.	c #D26556",
"'.	c #B6555C",
").	c #B95C5B",
"!.	c #B85C5B",
"~.	c #BB615A",
"{.	c #BD6055",
"].	c #5D89B4",
"^.	c #BB625A",
"/.	c #F4EAEA",
"(.	c #B4535C",
"_.	c #BA5F5A",
":.	c #BA605A",
"<.	c #B9635D",
"[.	c #599AC9",
"}.	c #94C9E7",
"|.	c #93C8E7",
"1.	c #AF6159",
"2.	c #89C1E4",
"3.	c #A5D6F2",
"4.	c #A4D6F2",
"5.	c #6AADDB",
"6.	c #81BBE1",
"7.	c #84BEE4",
"8.	c #B95D54",
"9.	c #B5615A",
"0.	c #B5515C",
"a.	c #B95E5B",
"b.	c #BD6156",
"c.	c #6288B1",
"d.	c #66B4E5",
"e.	c #76BBE7",
"f.	c #79BDE7",
"g.	c #69B6E7",
"h.	c #71B9E7",
"i.	c #87C3E7",
"j.	c #67B6E7",
"k.	c #8AC4E7",
"l.	c #6BB6E5",
"m.	c #B4605B",
"n.	c #B75754",
"o.	c #9B595E",
"p.	c #A9575A",
"q.	c #B6565C",
"r.	c #BC6258",
"s.	c #A6535D",
"t.	c #B65555",
"u.	c #C06259",
"v.	c #AA555B",
"w.	c #B4515C",
"x.	c #B5545C",
"y.	c #B6575B",
"z.	c #B6575C",
"A.	c #B7565A",
"B.	c #B75659",
"C.	c #B4525C",
"D.	c #A8535D",
"E.	c #B85856",
"F.	c #DE826B",
"G.	c #CB6457",
"H.	c #CD6256",
"I.	c #CC6256",
"J.	c #BB5E55",
"K.	c #BE625A",
"L.	c #D16D5D",
"M.	c #CF6455",
"N.	c #DD826B",
"O.	c #D26F5E",
"P.	c #D36B5A",
"Q.	c #D16657",
"R.	c #DF846D",
"S.	c #D67260",
"T.	c #BB6058",
"U.	c #C46358",
"V.	c #C56358",
"W.	c #C18A86",
"X.	c #C0645A",
"Y.	c #E5ECD6",
"Z.	c #BB6159",
"`.	c #E3E7D1",
" +	c #E3E9D4",
".+	c #A74E56",
"++	c #B7595B",
"@+	c #BE807B",
"#+	c #E4EBD6",
"$+	c #A84E56",
"%+	c #7A413F",
"&+	c #B5525D",
"*+	c #BF8884",
"=+	c #E2EAD6",
"-+	c #E6EDD7",
";+	c #E6EED8",
">+	c #E6EDD6",
",+	c #BD817C",
"'+	c #7A423F",
")+	c #7C4240",
"!+	c #B6535D",
"~+	c #BA615A",
"{+	c #C29794",
"]+	c #DBE5D5",
"^+	c #BB645D",
"/+	c #BD7A74",
"(+	c #BB5F57",
"_+	c #4B3934",
":+	c #8F4852",
"<+	c #B5555C",
"[+	c #BD7974",
"}+	c #C49996",
"|+	c #E2E8D5",
"1+	c #BB6860",
"2+	c #BC756E",
"3+	c #F5E8E7",
"4+	c #F6E9E8",
"5+	c #BB625B",
"6+	c #529B6F",
"7+	c #323A44",
"8+	c #944A54",
"9+	c #B3525C",
"0+	c #B5565C",
"a+	c #BB645C",
"b+	c #BC645D",
"c+	c #506175",
"d+	c #914952",
"e+	c #B6565B",
"f+	c #E5EAD4",
"g+	c #E5EBD5",
"h+	c #E5EDD6",
"i+	c #4C5D6F",
"j+	c #4F6174",
"k+	c #8B464E",
"l+	c #B6525D",
"m+	c #D8E0D2",
"n+	c #E6EED7",
"o+	c #435364",
"p+	c #4D5D6F",
"q+	c #4F6073",
"r+	c #8B464F",
"s+	c #B6595F",
"t+	c #B86567",
"u+	c #C08984",
"v+	c #C08883",
"w+	c #469CCE",
"x+	c #425264",
"y+	c #4D5E70",
"z+	c #3394C6",
"A+	c #425263",
"B+	c #506174",
"C+	c #934A54",
"D+	c #9F4C55",
"E+	c #9E4C55",
"F+	c #9E4B54",
"G+	c #4A9CCD",
"H+	c #445160",
"I+	c #4C5C6F",
"J+	c #213940",
"K+	c #1F373E",
"L+	c #2C424C",
"M+	c #374C5A",
"N+	c #474B52",
"O+	c #355B6C",
"P+	c #58A9DA",
"Q+	c #90C7EB",
"R+	c #58A1D0",
"S+	c #44505F",
"T+	c #4D5D70",
"U+	c #2F3F47",
"V+	c #404F5D",
"W+	c #4D788F",
"X+	c #7EB9DD",
"Y+	c #8CCBF4",
"Z+	c #61A9D9",
"`+	c #509DCD",
" @	c #445263",
".@	c #2F3F46",
"+@	c #425060",
"@@	c #4D87A8",
"#@	c #445363",
"$@	c #43352F",
"%@	c #2A6B8E",
"&@	c #67B1E1",
"*@	c #78C0F1",
"=@	c #65ABDB",
"-@	c #5BA3D1",
";@	c #42505F",
">@	c #47494F",
",@	c #4D98BC",
"'@	c #256B8F",
")@	c #93CEF5",
"!@	c #8BC6EC",
"~@	c #276F94",
"{@	c #3B96C7",
"]@	c #4298C9",
"^@	c #6EAFD4",
"/@	c #61A7D0",
"(@	c #3F97C8",
"_@	c #424F5F",
":@	c #4D8FB2",
"<@	c #54A0CD",
"[@	c #70B0D5",
"}@	c #4C9CCB",
"|@	c #4097C8",
"1@	c #3895C7",
"2@	c #3E4C5A",
"3@	c #2F6A8A",
"4@	c #79B8DF",
"5@	c #7CC5F6",
"6@	c #53A5D6",
"7@	c #266E93",
"8@	c #509ED0",
"9@	c #8EC3E6",
"0@	c #A6D6F1",
"a@	c #78B4DD",
"b@	c #59A2D4",
"c@	c #86BEE3",
"d@	c #3482AC",
"e@	c #479BCC",
"f@	c #57A2D1",
"g@	c #72B2D7",
"h@	c #5AA2C3",
"i@	c #4099CA",
"j@	c #4B9CCE",
"k@	c #7EB9DC",
"l@	c #3381AC",
"m@	c #67AAD8",
"n@	c #9ECFED",
"o@	c #99CBEA",
"p@	c #66A9D7",
"q@	c #62A7D7",
"r@	c #7EB9DE",
"s@	c #226D92",
"t@	c #3D4957",
"u@	c #3E4A59",
"v@	c #296587",
"w@	c #62B0E0",
"x@	c #53A6D6",
"y@	c #206C92",
"z@	c #89C1E2",
"A@	c #A8D8F3",
"B@	c #85C7F2",
"C@	c #73BCED",
"D@	c #8FC8ED",
"E@	c #A7D7F1",
"F@	c #4C99C9",
"G@	c #61A7D6",
"H@	c #96CAEA",
"I@	c #61A7D4",
"J@	c #63A6C5",
"K@	c #4D9DCF",
"L@	c #94C8E9",
"M@	c #74B2DC",
"N@	c #9FD1ED",
"O@	c #9FD4F4",
"P@	c #7BC1F0",
"Q@	c #76BDED",
"R@	c #9DCFED",
"S@	c #95CAE7",
"T@	c #1E6C91",
"U@	c #52453F",
"V@	c #3E4A58",
"W@	c #2B698B",
"X@	c #2E91C2",
"Y@	c #21698D",
"Z@	c #90C5E3",
"`@	c #80C3F0",
" #	c #76BFF0",
".#	c #89C7F0",
"+#	c #A4D5EF",
"@#	c #84C4EF",
"##	c #5AA8D8",
"$#	c #7CC2F2",
"%#	c #9DD2F1",
"&#	c #81C5F4",
"*#	c #69B3E2",
"=#	c #62A6C5",
"-#	c #87C0E2",
";#	c #87C8F4",
">#	c #79C1F2",
",#	c #7BC2F2",
"'#	c #5EAAD8",
")#	c #9CD0EE",
"!#	c #79C0F0",
"~#	c #75BFF0",
"{#	c #9ACFEF",
"]#	c #A0D3EF",
"^#	c #6CB5E3",
"/#	c #256A8D",
"(#	c #594D48",
"_#	c #276C91",
":#	c #333E48",
"<#	c #2E749A",
"[#	c #277FAB",
"}#	c #2880AB",
"|#	c #287FAA",
"1#	c #65AFDC",
"2#	c #9BD2F4",
"3#	c #81C6F4",
"4#	c #8FCCF4",
"5#	c #8EC4E3",
"6#	c #5EA4C4",
"7#	c #C3C7BB",
"8#	c #67B3E4",
"9#	c #7BC3F4",
"0#	c #7CC4F4",
"a#	c #95CFF4",
"b#	c #7FBADC",
"c#	c #3F4B5A",
"d#	c #2C3943",
"e#	c #323B46",
"f#	c #323A45",
"g#	c #313D49",
"h#	c #72B5DE",
"i#	c #86C9F7",
"j#	c #93CFF6",
"k#	c #AADAF5",
"l#	c #7EBEE6",
"m#	c #67B5E6",
"n#	c #7DC5F6",
"o#	c #97D1F6",
"p#	c #A8DAF6",
"q#	c #70B4DE",
"r#	c #3C4958",
"s#	c #3E4B5A",
"t#	c #3F4C5B",
"u#	c #48382F",
"v#	c #2A373C",
"w#	c #343739",
"x#	c #4A3930",
"y#	c #4A3931",
"z#	c #483529",
"A#	c #483528",
"B#	c #483428",
"C#	c #4B392E",
"D#	c #49433F",
"E#	c #483429",
"                . .                             . .                             . .           . .                   + +       . ",
"                                                                                                    @ @                         ",
"                            + +                             # $ $ #                                 @ @   . .                   ",
"                            + +                     % $ $ $ & & & & $ $ $ %               +         *       . . *     *         ",
"                  . .                           $ $ & = - ; & > & & ; - = & $ $   . .             * , *   *   * ' ' ' * *       ",
"          + +       . .                   + ) $ ; & > ! ~ { & > & & { ~ ! > & ; $ ) . .             *       * ' ] ] ] ' * *     ",
"                          @ @             ^ / ( _ & > ! ~ { & > > & { ~ ! > & _ ( / ^             *         * ' ] : ] ' * +     ",
". .                       @ @   . .     $ < [ ( _ & > ! ~ { & > & & { ~ ! > & _ ( [ < $ . .       * *     * } ' ] ] ] '         ",
". @ .           +     | $ $ $ $ $ $ $ $ 1 < [ ( _ & > ! ~ { & > & & { ~ ! > & _ ( [ < 1 $ $ $ $ $ $ $ $ *   * } ' ' '       .   ",
"  . .         2 3 $ $ 4 5 6 & 7 8 9 0 a ; < [ ( _ & > ! ~ { & > & & { ~ ! > & _ ( [ < ; b 0 9 8 7 & 6 5 ~ $ $ 3 } } * @ @   .   ",
"          . c $ d ~ & e f g > > h i 0 j ; < [ ( _ & > ! ~ { & & > & { ~ ! > & _ ( [ < ; j 0 i h > & g f & & k d $ l   @ *       ",
"          m n n o ~ > & f g > > p q r j ; < [ ( _ & > ! ~ { & & > & { ~ ! > & _ ( [ < ; j s 0 h > > g f & > t o n $ m * ' * .   ",
"  .     u v n w x ~ > & f g > > p 0 y j ; < [ ( _ & > ! ~ { & & > & { ~ ! > & _ ( [ < ; j z 0 h > > g f & > A x n n $ u *       ",
"      B n v n C D ~ > & f g > > p 0 y j ; < [ ( _ & > ! ~ { & & > & { ~ ! & & _ ( [ < ; j z E p > > g f & > A D C n v n B       ",
"      $ n v n F G ~ > & f g > > p 0 y j ; < [ ( _ & > ! ~ { & & > & { ~ ! & & _ ( [ < ; j y 0 p > > g f & > A G F n v n $       ",
"    ) H n v n I G ~ > & f g > > p 0 y j ; < [ ( _ & > ! ~ { & & > & { ~ ! & & _ ( [ < ; j y 0 p > > g f & > A G I n v n H ) . . ",
"    $ J K v n I G ~ > & f g > > p 0 y j ; < [ ( _ & > ! ~ { & & > & { ~ ! > & _ ( [ < ; j y 0 p > > g f & > A G I n v K J L   . ",
"  $ M N O v n I G ~ > & f g > > p 0 y j ; < [ ( _ & > ! ~ { & > > & { ~ ! > & _ ( [ < ; j y 0 p > > g f & > A G I n v O N M $   ",
"  P Q N K v n I G ~ > & f g > > p 0 y j ; < [ ( _ & > ! ~ { & > > & { ~ ! > & _ ( [ < ; j y 0 p > > g f & > A G I n v K N Q $   ",
"  R Q N S v n I ~ ~ > & f g > > p 0 y j ; < [ ( _ & & ! ~ { & > > & { ~ ! > & _ ( [ < ; j y 0 p > > g f & > A G I n v S N Q $ T ",
"U V W N S v n I ~ ~ > & f g > > p 0 y j ; < [ ( _ & & ! ~ { & > > & { ~ ! > & _ ( [ < ; j y 0 p > > g f & > A G I n v S N W V U ",
"U X W N K v n I ~ ~ > & f g > > p 0 y j ; < [ ( _ & > ! ~ { & > > & { ~ ! & & _ ( [ < ; j y 0 p > > g f & > A G I n v K N W X U ",
"U X W N O v n I ~ ~ > & f g > > p 0 z j ; < [ ( _ & > ! ~ { & > > & { ~ ! & & _ ( [ < ; j y 0 p > > g f & > A G I n v O N W X U ",
"U X W N K v n I ~ ~ > & f g > > h 0 z j ; < [ ( _ & > ! ~ { & > > & { ~ ! > & _ ( [ < ; j y 0 p > > g f & > A G I n v K N W X U ",
"U X W N S v n I ~ ~ > & f g > > h 0 z j ; < [ ( _ & & & Y ; Z Z Z Z ; Y `  .& _ ( [ < ; j y 0 p > > g f & > A G I n v S N W X U ",
"U X W N S v n I ~ ~ > & f g > > h 0 z j ; < [ ..; & Z Z Z Z +.@.@.+.Z Z Z Z & ; ..[ < ; j y 0 p > > g f & > A G I n v S N W X U ",
"U X W N S v n I ~ ~ > & f g > > p 0 y j ; < [ ; #.Z $.%.%.%.&.*.*.&.=.-.;.>.0 0 ; [ < ; j y 0 p > > g f & > A G I n v n N W X U ",
"U X W N S v n I ~ ~ > & f g > > p 0 y j ,.< Z Z '.).!.~./ {.].].].].{./ ^.).).'.0 0 < ,.j y 0 p > > g f & > A G I n v n N W X U ",
"U X W N /.v n I ~ ~ > & f g > > p 0 y j ; Z (._.:.^.^.<.^.].[.}.|.].].^.<.^.^.:._.(.0 ; j y 0 p > > g f & > A G I n v n N W X U ",
"U X W N O v n I ~ ~ > & f g > > p 0 y 1.Z (.:.^.^.^.^.].].2.3.4.5.6.7.].].^.^.^.^.:.(.0 < y 0 p > > g f & > A G I n v n N W X U ",
"U X W N O v n 8.~ ~ > & f g > > p 0 9.Z 0.a.^.^.^.b.c.d.e.}.f.g.h.i.j.k.l.].b.^.^.^.a.0.0 m.0 p > > g f & > A D 8.n v n N W X U ",
"U X W N K v n n.~ ~ > & f g > > p o.Z p.q.:.^.^.^.r.].].].].].].].].].].].].r.^.^.^.:.^.s.0 o.p > > g f & > A ~ ^.n v n N W X U ",
"U X W N n v n t.u.~ > & f g > > p o.v.w.x.y.y.y.y.z.A.B.B.B.B.B.B.B.B.B.B.A.z.y.y.y.y.x.C.D.o.p > > g f & > t u.^.n v n N W X U ",
"U X W N n v n E.[ ~ F.& f g > > h G.& & & H.& & & I.& & & I.& & & & I.& & & I.& & & H.& & & G.h > > g f & F.~ [ ^.n v n N W X U ",
"U X W N n v n J.^.K.L.& f g > > h ~ & & & { & > & M.& > & M.& > > & M.& & & M.& & & { & & & ~ h > > g f N.~ ^.^.^.n v n N W X U ",
"U X W N n v n ^.^.^.^.O.P.Q.& R.S.~ & e & { & & & M.& > & M.& & & & M.& & & M.& & & { & & & ~ S.R.& Q.~ ~ ^.^.^.^.n v n N W X U ",
"U X W N n v n ^.T.^.^.^.U.V.~ ~ ~ ~ ~ ~ ~ ~ ~ ~ ~ ~ ~ ~ ~ ~ ~ ~ ~ ~ ~ ~ ~ ~ ~ ~ ~ ~ ~ ~ ~ ~ ~ ~ ~ ~ ^.^.^.^.^.T.^.n v n N W X U ",
"U X W ^.W.n v n ^.^.^.^.^.^.^.^.^.^.^.^.^.^.^.^.^.^.^.^.^.X.Y.Y.Y.Y.^.^.^.^.^.^.^.^.^.^.^.^.^.^.^.^.^.^.^.^.^.^.n v n ^.^.W X U ",
"U X W ^.^.n v v n ^.^.Z.^.^.^.^.^.^.^.^.^.^.^.^.^.^.^.^.Y.`. +Y.Y. +`.Y.^.^.^.^.^.^.^.^.^.^.^.^.^.^.^.^.^.^.^.n v v n ^.^.W X U ",
"U .+++~.^.@+n v v n n ^.^.^.^.^.^.^.^.^.^.^.Z.^.T.^.Y.#+Y.Y.Y.Y.Y.Y.Y.Y.Y.Y.Z.Z.^.Z.^.^.^.^.^.^.^.^.^.^.^.n n v v n ^.^.~.++$+U ",
"U %+&+++~.^.*+n n v v n n n n n n n n n n n ^.Z.^.Y.=+Y.Y.Y.-+;+;+-+>+Y.Y./ ,+^.Z.^.n n n n n n n n n n n v v n n ^.T.~.++&+'+  ",
"  )+!+C.~+^.^.^.{+n n v v v v v v v v v v n ^.^.Y.=+Y.Y.Y.Y.^.^.^.^.]+Y.^+/+Y.Y.^.^.n v v v v v v v v v v n n {+^.(+^.~+C.!+U * ",
"  _+:+C.<+~.^.^.^.[+}+n n n n n n n n n n ^.^.^.Y.Y.Y.|+Y.^.^.^.^.^.^.1+2+Y.#+Y.Y.^.^.n 3+3+3+3+3+3+3+4+n }+^.5+^.^.~.<+C.:+_+6+",
"  U 7+8+9+0+~+^.^.^.a+^.^.^.^.^.^.^.^.^.^.b+^.Y.Y.Y.Y.Y.^.^.^.Y.Y.^.^.^.Y.#+Y.Y.Y.^.b+^.^.^.^.^.^.^.^.^.^.^.^.^.^.~+0+9+8+7+U * ",
"  U c+7+d+X e+:.^.^.^.^.^.^.^.^.^.^.^.^.^.^.^.f+Y.Y.g+^.^.Y.Y.Y.h+Y.Y.^.^.g+Y.Y.f+^.^.^.^.^.^.^.^.^.^.^.^.^.^.^.:.e+X d+7+c+U   ",
"  U i+j+7+k+l+e+++^.^.^.^.^.^.^.^.^.^.^.^.^.^.Y.;+;+m+^.^.Y.;+n+n+;+Y.^.^.Y.;+;+Y.^.^.^.^.^.^.^.^.^.^.^.^.^.^.++e+l+k+7+j+i+U   ",
"  U o+p+q+7+r+X C.0+q.q.q.q.q.q.q.q.q.q.q.q.q.Y.Y.Y.Y.s+t+u+v+v+v+v+u+t+s+Y.Y.Y.Y.q.q.q.q.q.q.q.q.q.q.q.q.q.q.C.X r+7+q+p+o+U   ",
"  U w+x+y+q+7+d+9+q.q.q.q.q.q.q.q.q.q.q.q.q.q.q.q.q.q.q.q.q.q.q.q.q.q.q.q.q.q.q.q.q.q.q.q.q.q.q.q.q.q.q.q.q.q.q.d+7+q+y+x+w+U   ",
"  U z+w+A+p+B+7+C+D+D+E+F+F+F+F+F+F+F+F+F+F+F+F+F+E+F+F+F+F+F+E+E+F+F+F+F+F+E+F+F+F+F+F+F+F+F+F+F+F+F+F+E+D+D+C+7+B+p+A+w+z+U   ",
"  U G+G+w+H+I+B+7+J+K+L+M+M+M+M+M+M+M+M+M+M+M+M+M+N+O+N+Y.Y.Y.Y.Y.Y.Y.Y.N+O+N+M+M+M+M+M+M+M+M+M+M+M+M+M+L+7+J+7+B+I+H+w+G+G+U   ",
"  U P+Q+R+w+S+T+7+U+7+V+B+B+B+B+B+B+B+B+B+B+B+B+B+N+W+N+Y.Y.Y.Y.Y.Y.Y.Y.N+W+N+B+B+B+B+B+B+B+B+B+B+B+B+B+V+7+U+7+T+S+w+R+Q+P+U + ",
"  U X+Y+Z+`+w+ @7+.@7++@+@+@+@+@+@+@+@+@+@+@+@+@+@N+@@N+Y.Y.Y.Y.Y.Y.Y.Y.N+@@N+#@ @ @ @ @ @ @ @ @ @ @ @#@+@7+.@7+ @w+`+Z+Y+X+U + ",
"  $@%@&@*@=@-@w+7+.@7++@+@+@+@+@+@+@+@+@+@+@;@;@+@>@,@N+Y.Y.Y.Y.Y.Y.Y.Y.N+,@N++@+@+@+@+@+@+@+@+@+@+@+@+@+@7+7+7+w+-@=@*@&@%@U   ",
"  U 7+'@&@)@!@w+7+.@7+~@{@]@^@/@(@w+7++@_@+@+@+@+@N+:@N+Y.Y.Y.Y.Y.Y.Y.Y.N+:@N++@+@+@+@_@+@7+(@<@[@}@|@1@~@7+.@7+w+!@)@&@'@7+U   ",
"  U 2@7+3@4@5@6@7+.@7+7@8@9@0@a@b@c@7++@+@d@e@f@g@N+h@N+Y.Y.Y.Y.Y.Y.Y.Y.N+h@N+i@j@k@l@+@+@7+m@n@o@p@q@r@s@7+.@7+6@5@4@3@7+2@U   ",
". U t@u@7+v@w@x@7+.@7+y@z@A@B@C@D@E@7++@w+F@G@H@I@N+J@N+Y.Y.Y.Y.Y.Y.Y.Y.N+J@N+K@L@M@F@w++@7+N@O@P@Q@R@S@T@7+.@7+x@w@v@7+u@t@U   ",
". @ U@t@V@7+W@X@7+.@7+Y@Z@`@ #.#+#@#7++@##$#%#&#*#N+=#N+Y.Y.Y.Y.Y.Y.Y.Y.N+=#N+-#;#>#,#'#+@7+)#!#~#{#]#^#/#7+.@7+X@W@7+V@t@U@    ",
"  . . (#t@u@7+_#7+.@7+:#<#[#[#[#}#|#7++@1#2#3#4#5#N+6#N+7#Y.Y.Y.Y.Y.Y.7#N+6#N+8#9#0#a#b#+@7+|#[#[#}#}#<#:#7+.@7+_#7+u@t@(#      ",
"        U@t@c#7+7+.@7+d#e#7+7+7+7+f#g#+@h#i#j#k#l#N+N+N+7#7#7#7#7#7#7#7#N+N+N+m#n#o#p#q#+@7+7+7+7+7+7+7+7+7+.@7+7+c#t@U@+ +     ",
"          U r#s#7+U+7+t#t#t#t#t#t#t#t#+@7+7+7+7+7+N+} } } } } } } } } } } } N+7+7+7+7+7++@t#t#t#t#t#t#t#t#7+U+7+s#r#U   + +     ",
"  .         U U u#v#w#x#U U U U U U U y#z#A#B#A#z#C#*             .       * D#A#A#E#A#z#y#U U U U U U U x#7+v#u#U U             ",
"              . @ .                           . @ * *                     * * . @ .                           . @ .             ",
"                . .                             . .                             . .                             . .             ",
"                                                                                                                                "};
