/* XPM */
static char * floor2_xpm[] = {
"64 64 15 1",
" 	c #B6E2A0",
".	c #AED499",
"+	c #CAEDB8",
"@	c #A2CE8C",
"#	c #529B6F",
"$	c #8FC37A",
"%	c #A0E198",
"&	c #36714E",
"*	c #DD7599",
"=	c #F5BACF",
"-	c #75B870",
";	c #FBEDFD",
">	c #E9EB34",
",	c #6BA76B",
"'	c #265539",
"        ..              ..              ..     ..         ++   .",
"                                                  @@            ",
"              ++              ++#.                @@ ..         ",
"              ++              $#%#$          +    $   ..$  $    ",
"         ..              .###$#%%#$&##   ..      $*$ $ $===$$   ",
"     ++   ..         ++  #%%-#&-%#&-%%#   ..      $   $=;;;=$$  ",
"             @@           #%%-&--&-%%#           $    $=;>;=$+  ",
"..           @@ ..        $&---&-&--&$      ..   $$  $,=;;;=    ",
".@.     +       .@.     +###&#-#&--&&## +   .@  $***$ $,===   . ",
" ..              ..     #%%%-&#-&-&-%%%#     .$$*===*$$$,,$@@ . ",
"     ..     ++       .. .#%%%-'#'&----#       .$*=>=*,,$,$ @$   ",
"            ++           $&----'&###'&$      ..@*===*,$ $  $=$. ",
" .     ..        .     .. $&&''&''''&$ ..      $,***,$ $  $ $   ",
"       .@.             .@$#%--'#'#--%#$.@.    $,$$,,$$=*=$++    ",
"        ..              .#%--'#-#'##-%# ..    $$  $,,$*>*$++    ",
"              ..         $#&&'---#''&#$        .   $,$=*=,$ $ ..",
"        ..       @@       $$##&-#&##$$  ..          $.$,,$     .",
"                 @@ ..      $$$&&$$$                  .$$       ",
"            +    $   ..$  $    +                                ",
"                $*$ $ $===$$   +             +       .@.     +  ",
"         ..      $   $=;;;=$$            ..              ..     ",
"     ++   .     $    $=;>;=$+        ++   ..         ++   ..    ",
"           ..   $$  $,=;;;=                  @@              @@ ",
"..         .@  $***$ $,===   .  ..           @@ ..           @@ ",
".@.     +   .$$*===*$$$,,$@@ .  .@.     +       .@.     +       ",
" ..          .$*=>=*,,$,$ @$     ..              ..             ",
"     ..     ..@*===*,$ $  $=$.       ..     ++       ..     ++  ",
"              $,***,$ $  $ $                ++              ++  ",
" .     ..    $,$$,,$$=*=$++      .     ..        .     ..       ",
"       .@.   $$  $,,$*>*$++            .@.             .@.      ",
"        ..    .   $,$=*=,$ $ ..         ..              .#.     ",
"                   $.$,,$     .                        $#%#$    ",
"        ..           .$$                ..         ###$#%%#$&## ",
"                                                  #%%-#&-%#&-%%#",
"            +       .@.     +  +              ++   #%%-&--&-%%#+",
"              ++              ++              ++   $&---&-&--&$+",
"         ..              ..              ..       ###&#-#&--&&##",
"     ++   ..         ++   ..         ++   ..     #%%%-&#-&-&-%%%",
"             @@              @@              @@  .#%%%-'#'&----#",
"..           @@ ..           @@ ..           @@ ..$&----'&###'&$",
".@.     +       .@.     +       .@.     +       .@.$&&''&''''&$ ",
" ..              ..              ..              .$#%--'#'#--%#$",
"     ..     +#.      ..     ++       ..     ++    #%--'#-#'##-%#",
"           $#%#$            ++              ++    $#&&'---#''&#$",
" .     ###$#%%#$&##    ..        .     ..        . $$##&-#&##$$ ",
"      #%%-#&-%#&-%%#   .@.             .@.           $$$&&$$$   ",
"       #%%-&--&-%%#     ..              ..              ..      ",
"       $&---&-&--&$                                             ",
"      ###&#-#&--&&##    ..              ..              ..      ",
"     #%%%-&#-&-&-%%%#                                           ",
"     .#%%%-'#'&----#          ++              ++              ++",
"      $&----'&###'&$          ++              ++              ++",
"       $&&''&''''&$      ..              ..              ..     ",
"     +$#%--'#'#--%#$ ++   ..         ++   ..         ++   ..    ",
"      #%--'#-#'##-%#         @@              @@              @@ ",
"..    $#&&'---#''&#$         @@ ..           @@ ..           @@ ",
".@.    $$##&-#&##$$     +       .@.     +       .@.     +       ",
" ..      $$$&&$$$..              ..              ..             ",
"     ..     ++       ..     ++       ..     ++       ..     ++  ",
"            ++              ++              ++              ++  ",
" .     ..        .     ..        .     ..        .     ..       ",
"       .@.             .@.             .@.             .@.      ",
"        ..              ..              ..              ..      ",
"                                                                "};
