/* XPM */
static char * Sprite_down_xpm[] = {
"64 64 38 1",
" 	c #B6E2A0",
".	c #AED499",
"+	c #CAEDB8",
"@	c #A2CE8C",
"#	c #529B6F",
"$	c #8FC37A",
"%	c #A0E198",
"&	c #000000",
"*	c #DD7599",
"=	c #F5BACF",
"-	c #FBEDFD",
";	c #201720",
">	c #382838",
",	c #E9EB34",
"'	c #6BA76B",
")	c #952C3C",
"!	c #DD4341",
"~	c #208000",
"{	c #691414",
"]	c #D09870",
"^	c #B8B8C0",
"/	c #303030",
"(	c #F8D0B8",
"_	c #F8F8F8",
":	c #36714E",
"<	c #75B870",
"[	c #272B2B",
"}	c #8EB2D0",
"|	c #604030",
"1	c #323F52",
"2	c #D8A078",
"3	c #784040",
"4	c #2B78C6",
"5	c #5C6891",
"6	c #265539",
"7	c #2F3236",
"8	c #28588B",
"9	c #657BAC",
"        ..              ..              ..     ..         ++   .",
"                                                  @@            ",
"              ++              ++#.                @@ ..         ",
"              ++              $#%#$          +    $   ..$  $    ",
"         ..             &&&&&&&&&&&&&&&& ..      $*$ $ $===$$   ",
"     ++   ..         ++ &&&&&&&&&&&&&&&&  ..      $   $=---=$$  ",
"             @@     &&&&;;>>>>>>>>>>>>;;&&&&     $    $=-,-=$+  ",
"..           @@ ..  &&&&;;>>>>>>>>>>>>;;&&&&..   $$  $'=---=    ",
".@.     +       .@&&))!!>>>>>>>>>>>>>>>>!!))&&  $***$ $'===   . ",
" ..              .&&))!!>>>>>>>>>>>>>>>>!!))&&$$*===*$$$''$@@ . ",
"     ..     ++    &&))!!>>>>>>>>>>>>>>>>!!))&&.$*=,=*''$'$ @$   ",
"            ++    &&))!!>>>>>>>>>>>>>>>>!!))&&.@*===*'$ $  $=$. ",
" .     ..       &&))))!!>>>>>>>>>>>>>>>>!!))))&&'***'$ $  $ $   ",
"       .@.      &&))))!!>>>>>>>>>>>>>>>>!!))))&&$$''$$=*=$++    ",
"        ..      &&))))))>>>>~~~~~~~~>>>>))))))&&  $''$*,*$++    ",
"              ..&&))))))>>>>~~~~~~~~>>>>))))))&&   $'$=*='$ $ ..",
"        ..      &&))))));;~~~~;;;;~~~~;;))))))&&    $.$''$     .",
"                &&))))));;~~~~;;;;~~~~;;))))))&&      .$$       ",
"            + &&&&))))));;~~;;;;;;;;~~;;))))))&&&&              ",
"              &&&&))))));;~~;;;;;;;;~~;;))))))&&&&   .@.     +  ",
"         .. &&;;>>&&))));;;;;;~~~~;;;;;;))))&&>>;;&&     ..     ",
"     ++   . &&;;>>&&))));;;;;;~~~~;;;;;;))))&&>>;;&& ++   ..    ",
"          &&;;>>>>&&{{{{{{;;;;;;;;;;;;{{{{{{&&>>>>;;&&       @@ ",
"..        &&;;>>>>&&{{{{{{;;;;;;;;;;;;{{{{{{&&>>>>;;&&       @@ ",
".@.     +   &&;;>>>>&&{{))!!!!!!!!!!!!)){{&&>>>>;;&&    +       ",
" ..         &&;;>>>>&&{{))!!!!!!!!!!!!)){{&&>>>>;;&&            ",
"     ..     ..&&;;>>>>&&&&!!!!!!!!!!!!&&&&>>>>;;&&   ..     ++  ",
"              &&;;>>>>&&&&!!!!!!!!!!!!&&&&>>>>;;&&          ++  ",
" .     ..    $'$&&;;>>]]^^&&////////&&^^]]>>;;&& .     ..       ",
"       .@.   $$ &&;;>>]]^^&&////////&&^^]]>>;;&&       .@.      ",
"        ..    &&;;>>>>((__&&((((((((&&__((>>>>;;&&      .#.     ",
"              &&;;>>>>((__&&((((((((&&__((>>>>;;&&     $#%#$    ",
"        ..      &&&&;;>>((((((((((((((((>>;;&&&&   ###$#%%#$:## ",
"                &&&&;;>>((((((((((((((((>>;;&&&&  #%%<#:<%#:<%%#",
"            +     &&&&&&&&]]((]]]]((]]&&&&&&  ++   #%%<:<<:<%%#+",
"              ++  &&&&&&&&]]((]]]]((]]&&&&&&  ++   $:<<<:<:<<:$+",
"         ..     &&&&&&[[[[}}&&||||&&}}[[11&&      ###:#<#:<<::##",
"     ++   ..    &&&&&&[[[[}}&&||||&&}}[[11&&     #%%%<:#<:<:<%%%",
"             @@ &&222233[[44}}5555}}441111[[&&@  .#%%%<6#6:<<<<#",
"..           @@ &&222233[[44}}5555}}441111[[&&@ ..$:<<<<6:###6:$",
".@.     +       &&2222&&&&4444}}}}4444&&2233&&  .@.$::66:6666:$ ",
" ..             &&2222&&&&4444}}}}4444&&2233&&   .$#%<<6#6#<<%#$",
"     ..     +#.   &&&&. 77444444444444773322((33  #%<<6#<#6##<%#",
"           $#%#$  &&&&  77444444444444773322((33  $#::6<<<#66:#$",
" .     ###$#%%#$:##    .7788444444448877&&((((&& . $$##:<#:##$$ ",
"      #%%<#:<%#:<%%#   .7788444444448877&&((((&&     $$$::$$$   ",
"       #%%<:<<:<%%#     &&99888888889999&&&&&&          ..      ",
"       $:<<<:<:<<:$     &&99888888889999&&&&&&                  ",
"      ###:#<#:<<::##  >>99}}}}5555999955&&              ..      ",
"     #%%%<:#<:<:<%%%# >>99}}}}5555999955&&                      ",
"     .#%%%<6#6:<<<<#  &&99}}}}&&&&>>>>&&      ++              ++",
"      $:<<<<6:###6:$  &&99}}}}&&&&>>>>&&      ++              ++",
"       $::66:6666:$   &&}}}}9955  &&&&   ..              ..     ",
"     +$#%<<6#6#<<%#$ +&&}}}}9955  &&&&+   ..         ++   ..    ",
"      #%<<6#<#6##<%#    555599&&             @@              @@ ",
"..    $#::6<<<#66:#$    555599&&..           @@ ..           @@ ",
".@.    $$##:<#:##$$     &&4488&&.@.     +       .@.     +       ",
" ..      $$$::$$$..     &&4488&& ..              ..             ",
"     ..     ++       ..   &&&&       ..     ++       ..     ++  ",
"            ++            &&&&              ++              ++  ",
" .     ..        .     ..        .     ..        .     ..       ",
"       .@.             .@.             .@.             .@.      ",
"        ..              ..              ..              ..      ",
"                                                                "};
