/* XPM */
static char * Sprite_left_xpm[] = {
"64 64 37 1",
" 	c #B6E2A0",
".	c #AED499",
"+	c #CAEDB8",
"@	c #A2CE8C",
"#	c #529B6F",
"$	c #8FC37A",
"%	c #A0E198",
"&	c #36714E",
"*	c #DD7599",
"=	c #F5BACF",
"-	c #691414",
";	c #FBEDFD",
">	c #E9EB34",
",	c #201720",
"'	c #382838",
")	c #6BA76B",
"!	c #000000",
"~	c #208000",
"{	c #DD4341",
"]	c #952C3C",
"^	c #E8E8F8",
"/	c #604030",
"(	c #F8D0B8",
"_	c #D09870",
":	c #75B870",
"<	c #5C6891",
"[	c #8EB2D0",
"}	c #272B2B",
"|	c #265539",
"1	c #657BAC",
"2	c #2B78C6",
"3	c #323F52",
"4	c #784040",
"5	c #28588B",
"6	c #2C3232",
"7	c #246DA3",
"8	c #204B60",
"        ..              ..              ..     ..         ++   .",
"                                                  @@            ",
"              ++              ++#.                @@ ..         ",
"              ++              $#%#$          +    $   ..$  $    ",
"         ..              .###$#%%#$&##   ..      $*$ $ $===$$   ",
"     ++   ..         ++  #%%--------------..      $   $=;;;=$$  ",
"             @@           #%--------------       $    $=;>;=$+  ",
"..           @@ ..      ----,,'''''''''',,----   $$  $)=;;;=    ",
".@.     +       .@.     ----,,'''''''''',,----  $***$ $)===   . ",
" ..              ..   --,,,,'''''''''''''',,,,--*===*$$$))$@@ . ",
"     ..     ++       .--,,,,'''''''''''''',,,,--*=>=*))$)$ @$   ",
"            ++        --,,,,'''''''''''''',,,,!!*===*)$ $  $=$. ",
" .     ..        .    --,,,,'''''''''''''',,,,!!)***)$ $  $ $   ",
"       .@.          --~~~~,,'''''''''''''',,,,,,--))$$=*=$++    ",
"        ..          --~~~~,,'''''''''''''',,,,,,--$))$*>*$++    ",
"              ..----,,,,~~~~,,'''''''''',,,,,,,,!! $)$=*=)$ $ ..",
"        ..      ----,,,,~~~~,,'''''''''',,,,,,,,!!  $.$))$     .",
"              !!{{{{,,,,,,~~,,]]]]]]]]]]]],,,,,,!!    .$$       ",
"            + !!{{{{,,,,,,~~,,]]]]]]]]]]]],,,,,,!!              ",
"            !!{{{{{{,,~~,,,,]]]]]]]]]]]]]]]],,,,!!   .@.     +  ",
"         .. !!{{{{{{,,~~,,,,]]]]]]]]]]]]]]]],,,,!!       ..     ",
"     ++   . !!{{{{{{{{'',,]]]]]]]]]]]]]]]]]]]]''!!   ++   ..    ",
"           .!!{{{{{{{{'',,]]]]]]]]]]]]]]]]]]]]''!!           @@ ",
"..         .!!{{{{{{]]]]--]]]]]]]]]]]]]]]]--!!!!!!           @@ ",
".@.     +   !!{{{{{{]]]]--]]]]]]]]]]]]]]]]--!!!!!!.     +       ",
" ..          .!!]]]]]]]]]]----!!!!!!!!!!!!!!,,'',,!!            ",
"     ..     ..!!]]]]]]]]]]----!!!!!!!!!!!!!!,,'',,!! ..     ++  ",
"              $)!!!!!!''''!!^^,,,,,,,,,,,,,,'''''',,!!      ++  ",
" .     ..    $)$!!!!!!''''!!^^,,,,,,,,,,,,,,'''''',,!! ..       ",
"       .@.   $$  $))//((((!!^^__,,'''''''''''',,!!!!   .@.      ",
"        ..    .   $)//((((!!^^__,,'''''''''''',,!!!!    .#.     ",
"                   $__((((((((____,,'''''''',,!!       $#%#$    ",
"        ..          __((((((((____,,'''''''',,!!   ###$#%%#$&## ",
"                      //__((__,,,,'''',,!!,,,,!!  #%%:#&:%#&:%%#",
"            +       .@//__((__,,,,'''',,!!,,,,!!   #%%:&::&:%%#+",
"              ++        !!!!//!!,,,,!!!!  !!!!++   $&:::&:&::&$+",
"         ..             !!!!//!!,,,,!!!! .!!!!    ###&#:#&::&&##",
"     ++   ..         ++ !!__!!<<[[}}!!+   ..     #%%%:&#:&:&:%%%",
"             @@         !!__!!<<[[}}!!       @@  .#%%%:|#|&::::#",
"..           @@ ..        !!11[[22}}33!!     @@ ..$&::::|&###|&$",
".@.     +       .@.     + !!11[[22}}33!!+       .@.$&&||&||||&$ ",
" ..              ..         22222233__!!         .$#%::|#|#::%#$",
"     ..     +#.      ..     22222233__!!    ++    #%::|#:#|##:%#",
"           $#%#$          !!222222''____!!  ++    $#&&|:::#||&#$",
" .     ###$#%%#$&##    .. !!222222''____!!       . $$##&:#&##$$ ",
"      #%%:#&:%#&:%%#   .@.!!22222222''__((44         $$$&&$$$   ",
"       #%%:&::&:%%#     ..!!22222222''__((44            ..      ",
"       $&:::&:&::&$       !!55555555''((__44                    ",
"      ###&#:#&::&&##    ..!!55555555''((__44            ..      ",
"     #%%%:&#:&:&:%%%#       !!11[[11!!!!66                      ",
"     .#%%%:|#|&::::#        !!11[[11!!!!66    ++              ++",
"      $&::::|&###|&$      !!11[[[[!!!!66!!!!  ++              ++",
"       $&&||&||||&$      .!!11[[[[!!!!66!!!!             ..     ",
"     +$#%::|#|#::%#$ +!!7711[[[[!!   +!!!!..         ++   ..    ",
"      #%::|#:#|##:%#  !!7711[[[[!!    !!!!   @@              @@ ",
"..    $#&&|:::#||&#$  !!887788!!..           @@ ..           @@ ",
".@.    $$##&:#&##$$   !!887788!!.@.     +       .@.     +       ",
" ..      $$$&&$$$..       !!!!   ..              ..             ",
"     ..     ++       ..   !!!!       ..     ++       ..     ++  ",
"            ++              ++              ++              ++  ",
" .     ..        .     ..        .     ..        .     ..       ",
"       .@.             .@.             .@.             .@.      ",
"        ..              ..              ..              ..      ",
"                                                                "};
