/* XPM */
static char * Sprite_right_xpm[] = {
"64 64 37 1",
" 	c #B6E2A0",
".	c #AED499",
"+	c #CAEDB8",
"@	c #A2CE8C",
"#	c #529B6F",
"$	c #8FC37A",
"%	c #A0E198",
"&	c #36714E",
"*	c #DD7599",
"=	c #F5BACF",
"-	c #691414",
";	c #FBEDFD",
">	c #E9EB34",
",	c #201720",
"'	c #382838",
")	c #6BA76B",
"!	c #000000",
"~	c #208000",
"{	c #952C3C",
"]	c #DD4341",
"^	c #E8E8F8",
"/	c #D09870",
"(	c #F8D0B8",
"_	c #604030",
":	c #75B870",
"<	c #272B2B",
"[	c #8EB2D0",
"}	c #5C6891",
"|	c #265539",
"1	c #323F52",
"2	c #2B78C6",
"3	c #784040",
"4	c #28588B",
"5	c #2C3232",
"6	c #657BAC",
"7	c #903020",
"8	c #2F3236",
"        ..              ..              ..     ..         ++   .",
"                                                  @@            ",
"              ++              ++#.                @@ ..         ",
"              ++              $#%#$          +    $   ..$  $    ",
"         ..              .###$#%%#$&##   ..      $*$ $ $===$$   ",
"     ++   ..         ++ --------------#   ..      $   $=;;;=$$  ",
"             @@         --------------           $    $=;>;=$+  ",
"..           @@ ..  ----,,'''''''''',,----  ..   $$  $)=;;;=    ",
".@.     +       .@. ----,,'''''''''',,----  .@  $***$ $)===   . ",
" ..              .--,,,,'''''''''''''',,,,-- .$$*===*$$$))$@@ . ",
"     ..     ++    --,,,,'''''''''''''',,,,--  .$*=>=*))$)$ @$   ",
"            ++    !!,,,,'''''''''''''',,,,-- ..@*===*)$ $  $=$. ",
" .     ..        .!!,,,,'''''''''''''',,,,--   $)***)$ $  $ $   ",
"       .@.      --,,,,,,'''''''''''''',,~~~~--$)$$))$$=*=$++    ",
"        ..      --,,,,,,'''''''''''''',,~~~~--$$  $))$*>*$++    ",
"              ..!!,,,,,,,,'''''''''',,~~~~,,,,---- $)$=*=)$ $ ..",
"        ..      !!,,,,,,,,'''''''''',,~~~~,,,,----  $.$))$     .",
"                !!,,,,,,{{{{{{{{{{{{,,~~,,,,,,]]]]!!  .$$       ",
"            +   !!,,,,,,{{{{{{{{{{{{,,~~,,,,,,]]]]!!            ",
"                !!,,,,{{{{{{{{{{{{{{{{,,,,~~,,]]]]]]!!@.     +  ",
"         ..     !!,,,,{{{{{{{{{{{{{{{{,,,,~~,,]]]]]]!!   ..     ",
"     ++   .     !!''{{{{{{{{{{{{{{{{{{{{,,'']]]]]]]]!!+   ..    ",
"           ..   !!''{{{{{{{{{{{{{{{{{{{{,,'']]]]]]]]!!       @@ ",
"..         .@  $!!!!!!--{{{{{{{{{{{{{{{{--{{{{]]]]]]!!       @@ ",
".@.     +   .$$*!!!!!!--{{{{{{{{{{{{{{{{--{{{{]]]]]]!!  +       ",
" ..          .!!,,'',,!!!!!!!!!!!!!!----{{{{{{{{{{!!            ",
"     ..     ..!!,,'',,!!!!!!!!!!!!!!----{{{{{{{{{{!! ..     ++  ",
"            !!,,'''''',,,,,,,,,,,,,,^^!!''''!!!!!!          ++  ",
" .     ..   !!,,'''''',,,,,,,,,,,,,,^^!!''''!!!!!!     ..       ",
"       .@.   $!!!!,,'''''''''''',,//^^!!((((__         .@.      ",
"        ..    !!!!,,'''''''''''',,//^^!!((((__          .#.     ",
"                  !!,,'''''''',,////((((((((//         $#%#$    ",
"        ..        !!,,'''''''',,////((((((((//     ###$#%%#$&## ",
"                  !!,,,,!!,,'''',,,,//((//__      #%%:#&:%#&:%%#",
"            +     !!,,,,!!,,'''',,,,//((//__  ++   #%%:&::&:%%#+",
"              ++    !!!!  !!!!,,,,!!__!!!!    ++   $&:::&:&::&$+",
"         ..         !!!! .!!!!,,,,!!__!!!!.       ###&#:#&::&&##",
"     ++   ..         ++   ..!!<<[[}}!!//!!..     #%%%:&#:&:&:%%%",
"             @@             !!<<[[}}!!//!!   @@  .#%%%:|#|&::::#",
"..           @@ ..        !!11<<22[[}}!!     @@ ..$&::::|&###|&$",
".@.     +       .@.     + !!11<<22[[}}!!+       .@.$&&||&||||&$ ",
" ..              ..       !!//112222[[           .$#%::|#|#::%#$",
"     ..     +#.      ..   !!//112222[[.     ++    #%::|#:#|##:%#",
"           $#%#$        !!////''222222!!    ++    $#&&|:::#||&#$",
" .     ###$#%%#$&##    .!!////''222222!!.        . $$##&:#&##$$ ",
"      #%%:#&:%#&:%%#  33((//''22222222!!@.           $$$&&$$$   ",
"       #%%:&::&:%%#   33((//''22222222!!..              ..      ",
"       $&:::&:&::&$   33//((''44444444!!                        ",
"      ###&#:#&::&&##  33//((''44444444!!..              ..      ",
"     #%%%:&#:&:&:%%%#   55!!!!66[[66!!                          ",
"     .#%%%:|#|&::::#    55!!!!66[[66!!        ++              ++",
"      $&::::|&###|&$  !!!!55!!!![[[[66!!      ++              ++",
"       $&&||&||||&$   !!!!55!!!![[[[66!! ..              ..     ",
"     +$#%::|#|#::%#$ ++ !!!!    !![[[[6677!!         ++   ..    ",
"      #%::|#:#|##:%#    !!!! @@ !![[[[6677!! @@              @@ ",
"..    $#&&|:::#||&#$         @@ ..!!8877''!! @@ ..           @@ ",
".@.    $$##&:#&##$$     +       .@!!8877''!!    .@.     +       ",
" ..      $$$&&$$$..              .. !!!!         ..             ",
"     ..     ++       ..     ++      !!!!    ++       ..     ++  ",
"            ++              ++              ++              ++  ",
" .     ..        .     ..        .     ..        .     ..       ",
"       .@.             .@.             .@.             .@.      ",
"        ..              ..              ..              ..      ",
"                                                                "};
