/* XPM */
static char * Sprite_up_xpm[] = {
"64 64 32 1",
" 	c #B6E2A0",
".	c #AED499",
"+	c #CAEDB8",
"@	c #A2CE8C",
"#	c #529B6F",
"$	c #8FC37A",
"%	c #A0E198",
"&	c #000000",
"*	c #DD7599",
"=	c #F5BACF",
"-	c #FBEDFD",
";	c #201720",
">	c #382838",
",	c #E9EB34",
"'	c #6BA76B",
")	c #952C3C",
"!	c #55242C",
"~	c #36714E",
"{	c #75B870",
"]	c #323F52",
"^	c #272B2B",
"/	c #28588B",
"(	c #2B78C6",
"_	c #784040",
":	c #D8A078",
"<	c #265539",
"[	c #F8D0B8",
"}	c #2F3236",
"|	c #657BAC",
"1	c #5C6891",
"2	c #8EB2D0",
"3	c #204551",
"        ..              ..              ..     ..         ++   .",
"                                                  @@            ",
"              ++              ++#.                @@ ..         ",
"              ++              $#%#$          +    $   ..$  $    ",
"         ..             &&&&&&&&&&&&&&&& ..      $*$ $ $===$$   ",
"     ++   ..         ++ &&&&&&&&&&&&&&&&  ..      $   $=---=$$  ",
"             @@     &&&&;;>>>>>>>>>>>>;;&&&&     $    $=-,-=$+  ",
"..           @@ ..  &&&&;;>>>>>>>>>>>>;;&&&&..   $$  $'=---=    ",
".@.     +       .@&&))))>>>>>>>>>>>>>>>>))))&&  $***$ $'===   . ",
" ..              .&&))))>>>>>>>>>>>>>>>>))))&&$$*===*$$$''$@@ . ",
"     ..     ++    &&))))>>>>>>>>>>>>>>>>))))&&.$*=,=*''$'$ @$   ",
"            ++    &&))))>>>>>>>>>>>>>>>>))))&&.@*===*'$ $  $=$. ",
" .     ..       &&>>))))>>>>>>>>>>>>>>>>))))>>&&'***'$ $  $ $   ",
"       .@.      &&>>))))>>>>>>>>>>>>>>>>))))>>&&$$''$$=*=$++    ",
"        ..      &&))))));;>>>>>>>>>>>>;;))))))&&  $''$*,*$++    ",
"              ..&&))))));;>>>>>>>>>>>>;;))))))&&   $'$=*='$ $ ..",
"        ..      &&))))));;;;;;;;;;;;;;;;))))))&&    $.$''$     .",
"                &&))))));;;;;;;;;;;;;;;;))))))&&      .$$       ",
"            + &&&&!!))));;;;;;;;;;;;;;;;))))!!&&&&              ",
"              &&&&!!))));;;;;;;;;;;;;;;;))))!!&&&&   .@.     +  ",
"         .. &&;;>>&&!!));;;;;;;;;;;;;;;;))!!&&>>;;&&     ..     ",
"     ++   . &&;;>>&&!!));;;;;;;;;;;;;;;;))!!&&>>;;&& ++   ..    ",
"          &&;;>>>>&&!!));;;;;;;;;;;;;;;;))!!&&>>>>;;&&       @@ ",
"..        &&;;>>>>&&!!));;;;;;;;;;;;;;;;))!!&&>>>>;;&&       @@ ",
".@.     +   &&;;>>>>&&!!;;;;;;;;;;;;;;;;!!&&>>>>;;&&    +       ",
" ..         &&;;>>>>&&!!;;;;;;;;;;;;;;;;!!&&>>>>;;&&            ",
"     ..     ..&&;;>>>>&&&&&&;;;;;;;;&&&&&&>>>>;;&&   ..     ++  ",
"              &&;;>>>>&&&&&&;;;;;;;;&&&&&&>>>>;;&&          ++  ",
" .     ..    $'$&&;;>>>>>>>>&&&&&&&&>>>>>>>>;;&& .     ..       ",
"       .@.   $$ &&;;>>>>>>>>&&&&&&&&>>>>>>>>;;&&       .@.      ",
"        ..    &&;;;;;;;;>>>>>>>>>>>>>>>>;;;;;;;;&&      .#.     ",
"              &&;;;;;;;;>>>>>>>>>>>>>>>>;;;;;;;;&&     $#%#$    ",
"        ..      &&&&;;;;;;;;;;;;;;;;;;;;;;;;&&&&   ###$#%%#$~## ",
"                &&&&;;;;;;;;;;;;;;;;;;;;;;;;&&&&  #%%{#~{%#~{%%#",
"            +       &&&&;;;;;;;;;;;;;;;;&&&&  ++   #%%{~{{~{%%#+",
"              ++    &&&&;;;;;;;;;;;;;;;;&&&&  ++   $~{{{~{~{{~$+",
"         ..         &&]]^^&&&&&&&&&&&&^^^^&&&&    ###~#{#~{{~~##",
"     ++   ..        &&]]^^&&&&&&&&&&&&^^^^&&&&   #%%%{~#{~{~{%%%",
"             @@   &&^^]]]]////((((////^^__::::&& .#%%%{<#<~{{{{#",
"..           @@ ..&&^^]]]]////((((////^^__::::&&..$~{{{{<~###<~$",
".@.     +       .@&&__::&&//((((((((//&&&&::::&&.@.$~~<<~<<<<~$ ",
" ..              .&&__::&&//((((((((//&&&&::::&& .$#%{{<#<#{{%#$",
"     ..     +#. __[[::__//((((((((((((//  &&&&    #%{{<#{#<##{%#",
"           $#%#$__[[::__//((((((((((((//  &&&&    $#~~<{{{#<<~#$",
" .     ###$#%%#$&&[[[[&&}}//((((((((//}}.        . $$##~{#~##$$ ",
"      #%%{#~{%#~&&[[[[&&}}//((((((((//}}@.           $$$~~$$$   ",
"       #%%{~{{~{%%&&&&&&||||////////||&&..              ..      ",
"       $~{{{~{~{{~&&&&&&||||////////||&&                        ",
"      ###~#{#~{{~~##  &&11||||11112222||>>              ..      ",
"     #%%%{~#{~{~{%%%# &&11||||11112222||>>                      ",
"     .#%%%{<#<~{{{{#    &&>>>>&&&&2222||&&    ++              ++",
"      $~{{{{<~###<~$    &&>>>>&&&&2222||&&    ++              ++",
"       $~~<<~<<<<~$      .&&&&  33||2222&&.              ..     ",
"     +$#%{{<#<#{{%#$ ++   &&&&  33||2222&&..         ++   ..    ",
"      #%{{<#{#<##{%#         @@ &&||1111     @@              @@ ",
"..    $#~~<{{{#<<~#$         @@ &&||1111     @@ ..           @@ ",
".@.    $$##~{#~##$$     +       &&//((&&+       .@.     +       ",
" ..      $$$~~$$$..             &&//((&&         ..             ",
"     ..     ++       ..     ++    &&&&.     ++       ..     ++  ",
"            ++              ++    &&&&      ++              ++  ",
" .     ..        .     ..        .     ..        .     ..       ",
"       .@.             .@.             .@.             .@.      ",
"        ..              ..              ..              ..      ",
"                                                                "};
