/* XPM */
static char *_580309622624677ca6334417ec12f8akTb9t1mR8FqTQ4gR[] = {
/* columns rows colors chars-per-pixel */
"64 64 167 2 ",
"   c #37382C",
".  c #3A3D2F",
"X  c #3C4232",
"o  c #444135",
"O  c #474638",
"+  c #4B473B",
"@  c #4B4A3C",
"#  c #44503B",
"$  c #43583D",
"%  c #504D40",
"&  c #4F5440",
"*  c #475C40",
"=  c #495E41",
"-  c #535142",
";  c #595647",
":  c #555E46",
">  c #5D5648",
",  c #5B5849",
"<  c #635B4B",
"1  c #4C6342",
"2  c #506744",
"3  c #536B46",
"4  c #586F47",
"5  c #5B644B",
"6  c #556D4A",
"7  c #5C684D",
"8  c #587047",
"9  c #5C7449",
"0  c #5F784A",
"q  c #5C7050",
"w  c #5F7954",
"e  c #607749",
"r  c #637C4C",
"t  c #626E52",
"y  c #796857",
"u  c #617052",
"i  c #697557",
"p  c #627D54",
"a  c #6B775A",
"s  c #647F59",
"d  c #6B7C5B",
"f  c #67804E",
"g  c #69824E",
"h  c #6E894F",
"j  c #728648",
"k  c #718B4E",
"l  c #788E4C",
"z  c #7A924E",
"x  c #668257",
"c  c #6E8755",
"v  c #6F8951",
"b  c #67815B",
"n  c #6A855D",
"m  c #6D895E",
"M  c #728D51",
"N  c #718E5E",
"B  c #769252",
"V  c #799552",
"C  c #7D9A54",
"Z  c #75915C",
"A  c #79945F",
"S  c #6E8A60",
"D  c #738362",
"F  c #738A64",
"G  c #798F68",
"H  c #759365",
"J  c #769469",
"K  c #7C956B",
"L  c #7D9B6D",
"P  c #7F9F70",
"I  c #81974E",
"U  c #899E4D",
"Y  c #829D53",
"T  c #889F51",
"R  c #90A64F",
"E  c #85A154",
"W  c #8BA553",
"Q  c #8EA854",
"!  c #8DA559",
"~  c #90A154",
"^  c #94AC54",
"/  c #98AF53",
"(  c #92A158",
")  c #9DAD5B",
"_  c #97B055",
"`  c #9BB355",
"'  c #A8AE5E",
"]  c #A0B755",
"[  c #A4BB55",
"{  c #A9BD57",
"}  c #A2B35A",
"|  c #AAB55F",
" . c #A7B959",
".. c #ABBD59",
"X. c #B0BF5B",
"o. c #809A6F",
"O. c #829D70",
"+. c #86A263",
"@. c #85A36F",
"#. c #83A472",
"$. c #88A677",
"%. c #85A974",
"&. c #89A975",
"*. c #87AA78",
"=. c #8DAD7C",
"-. c #90AF7E",
";. c #8EB17D",
":. c #91B47F",
">. c #A2AE6C",
",. c #A1B366",
"<. c #ADB761",
"1. c #AFB861",
"2. c #B2BB62",
"3. c #B7BE68",
"4. c #BBBD68",
"5. c #B4C15E",
"6. c #B8C25F",
"7. c #BBC361",
"8. c #BDC570",
"9. c #BFC976",
"0. c #BFC77A",
"q. c #C2C665",
"w. c #C5C866",
"e. c #C7C968",
"r. c #CCCB6B",
"t. c #D0CD6D",
"y. c #C9CC72",
"u. c #D0CF71",
"i. c #CDD47E",
"p. c #D2D174",
"a. c #D4D67B",
"s. c #D6D87D",
"d. c #92B680",
"f. c #96BB83",
"g. c #99BE86",
"h. c #97B389",
"j. c #9DBA8D",
"k. c #9CC187",
"l. c #9FC58C",
"z. c #A2C58E",
"x. c #A2CD8D",
"c. c #A6C397",
"v. c #A6CD92",
"b. c #A7C498",
"n. c #A8C599",
"m. c #ADCC9E",
"M. c #A7D093",
"N. c #AAD395",
"B. c #ADD399",
"V. c #AED499",
"C. c #AED999",
"Z. c #B0DB9B",
"A. c #B2DE9D",
"S. c #B5E09F",
"D. c #B1D0A1",
"F. c #B6E2A0",
"G. c #D3D780",
"H. c #D2DA84",
"J. c #D8DC82",
"K. c #D9DE85",
"L. c #D7DF88",
"P. c #DBE28A",
"I. c #DCE38B",
"U. c #C4E6B2",
"Y. c #C7EAB5",
"T. c #C9ECB7",
"R. c #CAEDB8",
/* pixels */
"F.F.F.F.F.F.F.F.V.V.F.F.F.F.F.F.F.F.F.F.F.F.F.F.B.B.F.F.F.A.;.n L v.F.F.F.F.F.F.V.V.F.F.F.F.F.F.F.F.F.F.F.F.F.F.V.V.F.F.F.F.F.F.",
"F.F.F.F.F.F.F.F.F.F.F.F.F.F.F.F.F.F.F.F.F.F.C.f.:.:.:.:.d.:.m 4 >.:.d.:.:.:.:.:.x.F.F.F.F.F.F.F.F.F.F.F.F.F.F.F.F.F.F.F.F.F.F.F.",
"F.F.F.F.F.F.F.F.F.F.F.F.F.F.R.R.F.F.F.F.F.Z.g.c r r r r r r 0.P.H.8 8 8 r r r r #.N.A.F.F.F.R.R.F.F.F.F.F.F.F.F.F.F.F.F.F.F.R.R.",
"F.F.F.F.F.F.F.F.F.F.F.F.F.F.R.R.F.F.F.F.A.:.N V Q / ^ Y ( 4.G.I.P.y.' Y Q / ^ Y p L v.F.S.F.R.R.F.F.F.F.F.F.F.F.F.F.F.F.F.F.R.R.",
"F.F.F.F.F.F.F.F.F.V.V.F.F.F.F.F.F.F.x.;.;.+.~ |  .] _ } P.P.P.P.P.J.y.<.) ] ]  .) Y @.;.f.C.F.F.F.F.F.F.F.F.F.F.F.V.V.F.F.F.F.F.",
"F.F.F.F.F.R.R.F.F.F.V.V.F.F.F.F.A.N.&.r r W  .q.5._ W 3.P.P.P.P.P.P.J.y.) Q ] 7.7._ 8 r Z k.Z.F.F.F.F.F.F.R.R.F.F.F.V.V.F.F.F.F.",
"F.F.F.F.F.F.F.F.F.F.F.F.F.x.x.F.M.L T e / Q ^ { { _ ! 9.P.P.P.P.P.P.P.H.,.] { ..} W ^ _ ^ B %.A.F.F.F.F.F.F.F.F.F.F.F.F.F.x.x.F.",
"V.V.F.F.F.F.F.F.F.F.F.F.F.x.x.x.@.p Q ..7.2.| [ ]  .2.i.P.P.P.P.I.I.I.L.8.] { {  .1.7.5.] e p f.v.V.F.F.F.F.F.F.F.F.F.F.F.x.x.F.",
"V.x.V.F.F.F.F.F.R.F.F.F.F.F.S.*.r Y _ ..q.r.w.{ ] ] r.s.K.I.I.P.I.P.K.J.p.] { { 5.r.r.7.] Q e m l.x.V.F.F.F.F.F.R.F.F.F.F.F.F.F.",
"F.V.V.F.F.F.F.F.F.F.F.F.S.S.A.$.e ^ ] { ..q.w.{ ] ] r.u.p.p.J.P.I.a.p.u.r.] { ] 5.r.5.{ [ ` e p x.B.B.F.F.F.F.F.F.F.F.F.F.F.F.F.",
"F.F.F.F.F.V.V.F.F.F.F.S.D.h.*.H z ` { ] [ 5.5.{ ] { 6.7.q.r.p.a.a.p.w.7.] ] [ [ ..5.{ ] [ [ Q v #.*.d.C.F.V.V.F.F.F.F.F.R.R.F.F.",
"F.F.F.F.F.F.F.F.F.F.F.S.h.r r z Q ] [ [ [ [ [ [ ] ] [ [ 5.r.t.r.t.t.[ ] ] [ [ [ [ [ [ [ [ [ _ T r e N v.F.F.F.F.F.F.F.F.R.R.F.F.",
"F.V.F.F.F.F.F.V.V.F.F.S.*.r R ` ] ] [ [ [ [ [ [ [ { [ ] 5.r.r.r.r.r.] { ] [ [ [ [ [ [ [ [ [ ] ` _ e m v.F.F.F.V.V.F.F.F.F.F.F.F.",
"F.F.F.F.F.F.F.V.x.V.F.S.*.e ` { { { [ [ [ ] { 7...{ { ] ] ] r.t.r.] ] { [ [ { 5.5.[ ] [ [ [ { { { I s v.F.F.F.V.x.V.F.F.F.F.F.F.",
"F.F.F.F.F.F.F.F.V.V.F.S.f.A Q ` ] ` ] [ [ { 7.r.5.] { [ [ ] ] ] ] ] [ [ [ ] { w.w.5.{ [ ] ` ] ] ^ 9 #.N.F.F.F.F.V.V.F.F.F.F.F.F.",
"F.F.F.F.F.F.F.F.F.F.F.A.C.k.c U ` W _ [ { 7.r.r.5.{ { { [ [ { { { { [ [ { [ { w.r.w...[ ] Q ^ _ j #.N.A.S.F.F.F.F.F.F.F.F.F.F.F.",
"F.F.F.F.F.F.F.F.V.V.C.;.$.L p z ^ ^ ` [ [ 5.7.6.7.7.7...[ [ ] ] ] [ [ { 5.7.7.7.7.5.{ [ ] _ ^ W g S $.$.l.F.F.F.V.V.F.F.F.F.F.F.",
"F.F.F.F.F.F.F.F.F.C.f.p $ $ e v T ` { [ [ ` ] X.w.t.r.5.] [ [ [ [ [ ] { w.t.r.7. .` ] { [ [ ^ V 4 4 4 8 L v.A.F.F.F.F.F.F.F.F.F.",
"F.F.F.F.F.F.F.F.A.;.p * $ e 8 e V _ ] ] ] ^ ) w.r.r.r.5.{ { [ [ [ { { { q.r.r.r.2.W _ ] ] ] Q g 4 0 r $ 1 H v.S.F.F.F.F.F.F.R.R.",
"F.F.F.F.F.F.F.C.;.Z h B M r e 4 r l W W T Q  .r.t.r.7.7.q.7...[ { 6.q.7.7.q.r.t.7.^ E W Q I g 0 0 r g M k v L l.F.F.F.F.F.F.R.R.",
"F.F.F.F.F.F.F.N.n $ C V M v h 4 4 8 g B V ^ ..q.w.7.{ q.r.w.5.] { 7.r.r.5.5.q.w.7.] T V k 4 4 0 g v v B C B * ;.F.V.V.F.F.F.F.F.",
"F.F.F.F.F.R.T.v.m $ V M B C C M f 4 4 j / ] [ { { { { q.w...[ [ [ { 7.e.5.[ { { { ] ` U e r r g V C V M B B = =.A.S.V.V.F.F.F.F.",
"F.F.F.F.F.F.l.L 3 r M B W ^ Y V M g 4 l ` _ ^ ] [ ] { X.5.{ [ [ [ [ { 5.{ [ [ ] _ ^ ] Q 4 4 v V C W ^ C M h 8 n ;.C.F.F.F.x.x.F.",
"V.V.F.F.F.S.;.* $ r M W _ ` E V B M 4 V ^ ^ ^ ] _ _ ] { ] ` ] { [ ` ` ] [ ` ^ ] _ Q ^ W 4 h M V C ^ ] ^ C h 0 $ n N.F.F.F.x.x.F.",
"V.x.V.F.F.S.;.= e M E _ ] _ E B M V M M Y ^ ` ` T T ] [ _ W _ ] ` W Q ] [ ^ V ^ ] _ W B h V B M V ^ ] ] ^ V g $ F N.F.F.F.F.F.F.",
"F.V.V.F.F.F.;.= h V W ` _ W Y V V C V B 4 V Y Y W / ] _ W Y W Q W Y Y Q ` ` ^ T Y Y 4 4 B C V V C E ^ ] ^ C B $ n N.F.F.F.F.F.F.",
"F.F.F.F.A.g.J $ B C E ^ W C C C C C C V M 4 4 g T ^ ^ E V V V C C V V Y Q ^ 4 4 4 v v 4 C C C C C C Y ^ Q C C f p d.V.F.R.R.F.F.",
"F.S.A.A.v.F 1 $ B C C Y C C C Y Y Y Y C C C B h h 4 4 4 B v V C C M M V M k 4 4 M V C C C Y Y Y C C C Y C C C g $ 9 ;.Z.U.Y.F.F.",
"F.v.*.L H 6 $ $ h V V M B C C Q _ _ W C C C C B B B B 4 M B 4 C C V M M M B B B V C C C Y ^ _ ^ E C C M B C M e $ $ s L L l.F.F.",
"F.N.n $ $ 2 $ $ e g k M V C C Q ` ] ^ C C E W W E C C B M C C C C C V M V C Y W W W Y C E ` ] ^ E C C M M h r 0 8 2 1 $ = :.F.F.",
"F.N.m $ 2 3 0 r 4 4 e B C C C C W ` Q C Y ^ ] ] W C Y Y Y C C C C C C Y Y Y Y _ ] ` W C E _ ^ Y C C C C h 8 4 0 r 4 2 1 1 d.F.F.",
"F.N.n $ 4 0 r r $ 8 g V B M C C Y W E E ^ ] { ] Q E _ _ ^ Y C C C C W _ _ Q E _ { ] ` Q Y W E C C B M V M 0 4 0 f r 8 1 = d.F.F.",
"F.C.=.b 3 r r 0 $ $ r M B B C C C B V W ] { [ ] Q E _ ] _ Y C C C C Q ] ` Q E _ { [ [ ^ C B V C C V M B h 0 4 $ r f 8 9 L x.F.F.",
"F.F.A.*.= $ 0 3 2 2 8 r B C C V B v B W ] { ] ` W C Y ^ _ Y C C C C W ` W C Y _ ] [ [ ^ C M M V C C V h 0 3 $ $ 4 e 4 n v.S.F.F.",
"F.F.F.;.1 $ 2 2 2 2 $ 8 h V M f g B V W ] { ` Q Y V M Y E C C C C C Y E V B C E ^ ] { ^ C V h r h V V e 4 $ 2 2 2 2 $ m N.F.R.R.",
"F.F.F.;.1 $ 1 2 2 2 2 $ r h e 9 r V C Y Q ^ ^ Y V M r M C C C C C C C V g g B C W ^ ^ W C C k 0 0 g g 8 $ $ 2 2 2 1 $ m N.F.R.R.",
"F.F.F.;.1 $ 2 2 2 2 2 2 $ $ $ 0 g B C V M V Y C M e 8 k C C C C C C C V r 0 g V Y C M M V V M r 4 3 4 $ 2 2 2 2 2 2 $ n N.F.F.F.",
"F.F.F.;.= $ $ 2 2 2 2 2 2 2 $ 4 8 e g M B V C C g $ e g M C C C C C V v r $ 0 B C C V M h r 0 8 $ $ $ $ 2 2 2 2 2 2 $ b N.F.F.F.",
"F.F.F.x.L 6 $ 2 2 1 1 2 4 8 3 2 $ $ $ r h M B h 0 $ $ r g h M B B k h g r $ $ f M B k g 0 $ $ $ $ 4 $ $ $ 1 2 2 2 $ n ;.C.x.x.F.",
"V.V.F.F.M.J 6 $ 2 1 = 2 e r 4 2 4 4 $ 2 4 e r $ $ $ $ e e 8 r g g 0 $ $ $ $ $ 4 0 r $ 3 $ $ 4 4 3 0 r 8 $ $ 1 2 = w d.A.F.x.x.F.",
"V.x.V.F.A.v.P * $ 1 2 e r r 4 8 r r 8 $ $ $ 8 e 8 $ $ $ 9 e r g f r 0 4 3 $ $ 0 0 4 $ $ 4 0 r e 4 0 f r 8 $ $ $ b f.C.F.F.F.F.F.",
"F.V.V.F.F.F.x.L 6 1 4 r g r 0 r g g 0 2 2 $ e r e 0 0 9 e f g g g g r 0 0 0 0 r r 8 $ 2 4 r g r 0 e g g 0 2 1 n :.Z.F.F.F.F.F.F.",
"F.F.F.F.F.V.V.v.m $ 8 r g r f g f r 8 2 4 e g g g f f f f g g g g g g f f f f g g r 8 $ 4 e f g f r r f 0 2 6 ;.A.F.F.F.R.R.F.F.",
"F.F.F.F.F.F.F.N.m $ 8 r e 0 f g r 8 3 4 e r g g g g g g g g g g g g g g g g g g g g r 0 3 4 e g g e 8 r 0 2 6 :.F.F.F.F.R.R.F.F.",
"F.V.F.F.F.F.F.z.n 2 $ 0 4 4 r g r 4 2 8 r r e f g g g g g g g g g g g g g g g g r e r e $ 2 0 g g 0 4 0 8 2 6 *.B.F.F.F.F.F.F.F.",
"F.F.F.F.F.F.F.z.x 2 $ 2 2 4 r r e 4 2 4 e 8 4 r g g g r r g g g g g f r f g g g e 4 e $ $ 2 8 r r 0 2 2 2 2 2 *.x.V.F.F.F.F.F.F.",
"F.F.F.F.F.F.F.N.b 1 $ = 1 2 4 4 $ $ 2 3 4 1 2 r g g f 0 0 f g g g g e 8 r g g g $ 1 2 $ 2 2 4 4 4 4 2 $ $ $ 1 ;.B.V.F.F.F.F.F.F.",
"F.F.F.F.F.F.F.C.d.n 1 1 1 2 2 $ $ 2 2 2 2 = $ 0 0 e r 8 8 f g g g g $ 4 e r 0 0 $ $ 1 $ 2 2 1 1 2 $ $ $ 1 6 #.x.F.F.F.F.F.F.F.F.",
"F.F.F.F.F.F.F.F.N.=.p = 2 $ $ $ = 2 2 2 2 $ $ 2 2 8 e 8 8 r r r r r $ $ 0 0 $ 2 $ $ 1 2 $ $ $ $ $ $ 2 1 6 K N.F.V.V.F.F.F.F.F.F.",
"F.F.F.F.F.F.F.F.F.C.g.w $ $ $ 1 2 2 2 1 = $ $ 2 2 $ 4 3 $ $ 4 4 4 4 4 $ $ $ $ 2 2 $ $ 1 2 2 2 1 = $ $ 1 #.M.A.F.F.F.F.F.F.F.F.F.",
"F.F.F.F.F.F.F.F.F.Z.x.L q # $ $ 1 1 $ $ $ $ $ 2 2 2 $ $ $ 2 2 2 2 2 2 2 $ 2 2 2 2 2 $ $ 1 1 1 $ $ $ 1 S d.N.S.F.F.F.F.F.F.F.R.R.",
"F.F.F.F.F.F.F.S.Z.v.f.f.K 5 , $ $ $ $ # . $ $ $ 2 2 2 2 2 2 2 2 2 2 2 2 2 2 2 2 2 $ $ $ $ $ $ $ $ 1 d =.f.l.V.A.F.F.F.F.F.F.R.R.",
"F.F.F.F.F.F.F.A.x.d.=.f.:.O.t o o o + o o o $ $ $ 1 = 1 2 2 2 2 2 2 2 2 = $ $ $ $ $ o o + o + o   F =.f.f.f.l.N.F.V.V.F.F.F.F.F.",
"F.F.F.F.F.R.R.Z.l.f.=.=.g.d.o.t o - y y y o X $ $ $ $ $ $ $ 2 2 2 2 2 1 $ $ $ $ $ o o > y y o & F *.f.f.f.c.b.v.F.F.V.V.F.F.F.F.",
"F.F.F.F.F.F.F.Z.l.f.f.f.f.%.#.F o y y y y y o o o X # $ $ $ $ $ $ $ $ $ X o o o o + - y y y < 5 &.f.f.f.f.f.f.M.F.F.F.F.F.x.x.F.",
"V.V.F.F.F.F.F.Z.l.f.f.f.f.%.%.G , o y - y - + - - @ o o o o o o o o o - o o - - @ @ - - y o o 5 #.:.f.f.f.f.f.M.F.F.F.F.F.x.x.F.",
"V.x.V.F.F.F.F.Z.m.f.f.f.f.f.f.*.D @ o o o o o ; , % o o > - - y - - o ; o o ; , o o o o o o a O.*.%.=.f.f.f.f.v.R.F.F.F.F.F.F.F.",
"F.V.V.F.F.F.F.A.x.g.f.f.f.f.f.f.=.d 5 t t t 5 O , - o @ y y y y y y - ; o + ; o - t i a a a o.f.f.=.-.f.f.f.l.N.F.F.F.F.F.F.F.F.",
"F.F.F.F.F.V.V.S.A.v.f.f.b.b.f.f.f.:.=.;.;.$.K : O - @ @ - y y y y - - o @ @ @ @ n *.;.;.j.j.d.f.f.f.f.f.f.d.v.S.F.F.F.F.R.R.F.F.",
"F.F.F.F.F.F.F.F.F.Z.v.g.c.b.f.f.f.f.f.f.f.g.:.O.K K K 7 o o - y - o o @ n o.o.L *.f.g.f.n.n.f.f.f.f.f.f.l.N.S.F.F.F.F.F.R.R.F.F.",
"F.V.F.F.F.F.F.V.V.F.A.x.g.f.f.f.f.=.f.f.f.f.f.=.=.f.d.K u t & o O 5 t d &.f.f.=.=.f.f.f.f.f.f.f.f.=.f.l.N.S.F.V.V.F.F.F.F.F.F.F.",
"F.F.F.F.F.F.F.V.x.V.S.A.v.f.f.f.f.f.f.f.f.f.f.=.%.-.f.:.;.=.d < t O.;.;.d.f.f.=.%.=.f.f.f.f.f.f.f.f.l.V.S.F.F.V.x.V.F.F.F.F.F.F.",
"F.F.F.F.F.F.F.F.V.V.F.F.Z.v.g.f.f.f.f.f.f.f.f.f.=.=.f.f.f.f.$.L O.;.f.f.f.f.f.f.=.=.f.f.f.f.f.f.f.l.N.S.F.F.F.F.V.V.F.F.F.F.F.F.",
"F.F.F.F.F.F.F.F.F.F.F.F.F.A.x.l.l.l.l.l.l.l.l.l.l.l.l.l.l.l.l.l.l.l.l.l.l.l.l.l.l.l.l.l.l.l.l.l.l.N.S.F.F.F.F.F.F.F.F.F.F.F.F.F."
};
